*******************************************************************************
 Another Happy Day.2011.DVDSCR.Xvid.AC3-SiNiSTER
*******************************************************************************
-------------------------------------------------------------------------------
 General Information
------------------------------------------------------------------------------- 
http://www.pix2links.com/image/KfhQk.jpg
Format : AVI
Format/Info : Audio Video Interleave
File size : 1.24 GiB
Duration : 1h 58mn
Overall bit rate : 1 499 Kbps
Video
ID : 0
Format : MPEG-4 Visual
Format profile : Advanced Simple@L5
Format settings, BVOP : Yes
Format settings, QPel : Yes
Format settings, GMC : 3 warppoints
Format settings, Matrix : Default (H.263)
Muxing mode : Packed bitstream
Codec ID : XVID
Codec ID/Hint : XviD
Duration : 1h 58mn
Bit rate : 1 107 Kbps
Width : 720 pixels
Height : 272 pixels
Display aspect ratio : 2.647
Frame rate : 23.976 fps
Color space : YUV
Chroma subsampling : 4:2:0
Bit depth : 8 bits
Scan type : Progressive
Bits/(Pixel*Frame) : 0.236
Stream size : 940 MiB (74%)
Writing library : XviD 64
Audio
ID : 1
Format : AC-3
Format/Info : Audio Coding 3
Mode extension : CM (complete main)
Codec ID : 2000
Duration : 1h 58mn
Bit rate mode : Constant
Bit rate : 384 Kbps
Channel(s) : 2 channels
Channel positions : Front: L R
Sampling rate : 48.0 KHz
Bit depth : 16 bits
Stream size : 326 MiB (26%)
Alignment : Aligned on interleaves
Interleave, duration : 64 ms (1.53 video frames)
Interleave, preload duration : 192 ms
Video Source: [EXCLUSIVE] Another Happy Day (2011) DVDSCR [500MB] Jcberry526.....thanks 
Audio Source: [EXCLUSIVE] Another Happy Day (2011) DVDSCR [500MB] Jcberry526.....thanks
Greets:
DarkScene,HDScene,Noir,CrEwSaDe,blackjesus,ViSiON,HDLiTE,BTVRG,Twentyforty,UnKnOwN,
FLAWL3SS,Rx,Relizlab,MiSTERE,ILLUMiNATI,SAFCuk009,HiVE-CM8..... and everybody else we 
respect.. u know who u are
 
-------------------------------------------------------------------------------
 Post Information
-------------------------------------------------------------------------------
Encoded by...........: SiNiSTER
 
Have sumthing to offer..looking for suppliers... cammers,cams,screeners, audio
supplier.. and any pre retail DVD/BR any RC...if u can provide any email us at
sinister@hushmail.me
-------------------------------------------------------------------------------
 Release Notes
-------------------------------------------------------------------------------
another SCR that was ripper wrong fromthe get go.. made a scrit to denoise alot
then dropped it into vdub to adjust RGB, denoise sum more,smooth, hue, saturation
gamma, levels and contrast and sharpened a lil bit.. then converted AAC to AC3 and
remuxed to my encode....enjoy
-------------------------------------------------------------------------------
 ScreenShots
------------------------------------------------------------------------------- 
http://www.pix2links.com/image/S7xwn.png 
http://www.pix2links.com/image/q09AK.png 
http://www.pix2links.com/image/izFD1.png 
http://www.pix2links.com/image/73Yl5.png 
http://www.pix2links.com/image/FmPK3.jpg
-------------------------------------------------------------------------------
[img]http://leetleech.org/images/33506450373550172140.gif[/img]
-------------------------------------------------------------------------------
Generated with Cool NFO Creator - http://fly.to/coolbeans
-------------------------------------------------------------------------------